<?xml version="1.0" encoding="iso-8859-1"?>
<!-- Uploaded to: SVG Repo, www.svgrepo.com, Generator: SVG Repo Mixer Tools -->
<!DOCTYPE svg PUBLIC "-//W3C//DTD SVG 1.1//EN" "http://www.w3.org/Graphics/SVG/1.1/DTD/svg11.dtd">
<svg fill="#000000" height="800px" width="800px" version="1.1" id="Capa_1" xmlns="http://www.w3.org/2000/svg" xmlns:xlink="http://www.w3.org/1999/xlink" 
	 viewBox="0 0 384.538 384.538" xml:space="preserve">
<g>
	<path d="M127.678,220.215c3.766,0,7.373-2.138,9.069-5.776l25.202-54.045c9.278-19.898,0.639-43.634-19.259-52.912
		c-9.639-4.495-20.452-4.967-30.445-1.329c-7.119,2.591-13.215,7.046-17.758,12.879c-17.711-3.75-36.36,5.035-44.333,22.13
		c-9.278,19.898-0.639,43.634,19.259,52.912l54.045,25.202C124.825,219.913,126.262,220.215,127.678,220.215z M77.865,175.948
		c-9.903-4.618-14.203-16.431-9.585-26.334c3.358-7.202,10.522-11.44,17.99-11.44c2.8,0,5.644,0.596,8.344,1.856
		c2.403,1.121,5.155,1.241,7.646,0.333c2.492-0.907,4.522-2.767,5.643-5.171c2.237-4.797,6.208-8.436,11.182-10.246
		c4.975-1.811,10.355-1.575,15.152,0.661c9.903,4.618,14.203,16.431,9.585,26.334l-20.976,44.982L77.865,175.948z"/>
	<path d="M334.383,141.161c-7.972-17.096-26.612-25.883-44.332-22.13c-4.543-5.833-10.64-10.288-17.759-12.88
		c-9.993-3.637-20.806-3.166-30.445,1.329c-19.897,9.278-28.536,33.015-19.259,52.913l25.202,54.045
		c1.697,3.638,5.304,5.776,9.07,5.776c1.414,0,2.853-0.302,4.22-0.939l54.045-25.202
		C335.023,184.795,343.662,161.059,334.383,141.161z M306.672,175.948l-44.981,20.975l-20.976-44.982
		c-4.618-9.903-0.318-21.716,9.585-26.334c2.664-1.242,5.508-1.867,8.362-1.867c2.285,0,4.578,0.401,6.789,1.206
		c4.974,1.81,8.945,5.449,11.182,10.246c2.335,5.005,8.284,7.172,13.289,4.837c9.902-4.618,21.717-0.318,26.335,9.584
		S316.576,171.33,306.672,175.948z"/>
	<path d="M192.269,0C86.252,0,0,86.251,0,192.269c0,106.018,86.251,192.269,192.269,192.269s192.269-86.251,192.269-192.269
		C384.538,86.251,298.287,0,192.269,0z M192.269,364.538C97.28,364.538,20,287.258,20,192.269C20,97.28,97.28,20,192.269,20
		s172.269,77.28,172.269,172.269C364.538,287.258,287.258,364.538,192.269,364.538z"/>
	<path d="M276.378,240.66c-2.441-1.895-5.621-2.554-8.612-1.787c-49.391,12.653-101.603,12.653-150.992,0
		c-2.995-0.768-6.173-0.107-8.613,1.787s-3.869,4.81-3.869,7.9c0,48.511,39.467,87.978,87.978,87.978
		c48.511,0,87.978-39.467,87.978-87.978C280.247,245.47,278.819,242.554,276.378,240.66z M192.269,316.538
		c-33.082,0-60.719-23.751-66.754-55.098c43.938,9.229,89.569,9.229,133.508,0C252.988,292.787,225.35,316.538,192.269,316.538z"/>
</g>
</svg>